<svg width="56" height="56" viewBox="0 0 56 56" fill="none" xmlns="http://www.w3.org/2000/svg">
<path d="M28 12C20.8868 12 16.4412 15.5556 14.6627 22.6662C17.3305 19.1106 20.4425 17.7777 23.9988 18.6663C26.0281 19.1733 27.4783 20.6456 29.0841 22.2746C31.6991 24.9283 34.7257 27.9996 41.3373 27.9996C48.4499 27.9996 52.8961 24.444 54.6739 17.3328C52.0069 20.8884 48.8949 22.2219 45.3379 21.3333C43.3092 20.8264 41.859 19.3541 40.2533 17.725C37.6382 15.0713 34.611 12 28 12V12ZM14.6627 27.9996C7.55013 27.9996 3.10393 31.5553 1.32611 38.6665C3.99317 35.1109 7.10518 33.7774 10.6621 34.6666C12.6908 35.1743 14.1411 36.6459 15.7468 38.2743C18.3618 40.928 21.3891 44 28 44C35.1133 44 39.5588 40.4443 41.3373 33.3331C38.6696 36.8887 35.5576 38.2222 32.0013 37.333C29.972 36.8267 28.5217 35.3537 26.916 33.7253C24.301 31.0716 21.2743 27.9996 14.6627 27.9996V27.9996Z" fill="#06B6D4"/>
</svg>
