<svg width="56" height="56" viewBox="0 0 56 56" fill="none" xmlns="http://www.w3.org/2000/svg">
<path d="M55.1571 41.1701C53.1507 41.6803 51.9097 41.1925 50.7962 39.5206L42.8777 28.565L41.7332 27.0482L32.4858 39.5568C31.4292 41.0615 30.3209 41.7165 28.349 41.1839L40.1906 25.2883L29.166 10.9303C31.0621 10.5614 32.372 10.7493 33.5355 12.4471L41.7487 23.5388L50.0223 12.5074C51.0824 11.0027 52.2217 10.4304 54.1246 10.9854L49.8499 16.6528L44.0584 24.1938C43.369 25.0557 43.4638 25.6451 44.0981 26.4777L55.1571 41.1701ZM0.0137893 25.0229L0.982486 20.2587C3.61968 10.8303 14.427 6.91242 21.8801 12.7384C26.2358 16.165 27.3183 21.0119 27.1028 26.4415H2.55102C2.18215 36.2146 9.2164 42.113 18.1846 39.1035C21.3303 38.0469 23.1832 35.5838 24.1105 32.5019C24.5811 30.9575 25.3602 30.7161 26.8115 31.1574C26.0703 35.0115 24.3984 38.2313 20.8649 40.2463C15.5853 43.2627 8.04949 42.2871 4.08507 38.0951C1.72366 35.663 0.748068 32.5811 0.310259 29.2855C0.241312 28.7408 0.10342 28.222 0 27.6997C0.00919285 26.808 0.0137893 25.9163 0.0137893 25.0246V25.0229ZM2.59583 24.3679H24.7828C24.638 17.3009 20.2375 12.2816 14.2236 12.2385C7.62202 12.1868 2.88196 17.0872 2.59583 24.3679Z" fill="white"/>
</svg>
