<svg width="56" height="56" viewBox="0 0 56 56" fill="none" xmlns="http://www.w3.org/2000/svg">
<path fill-rule="evenodd" clip-rule="evenodd" d="M11.6314 5.69495C8.4361 5.69495 6.07174 8.49167 6.17761 11.5246C6.27922 14.4385 6.14721 18.2124 5.19717 21.29C4.24375 24.3762 2.63244 26.3319 0 26.583V29.4171C2.63244 29.6686 4.24375 31.6234 5.19706 34.7101C6.14721 37.7877 6.27911 41.5615 6.1775 44.4754C6.07163 47.5079 8.43599 50.3051 11.6318 50.3051H44.3729C47.5682 50.3051 49.9321 47.5084 49.8262 44.4754C49.7246 41.5615 49.8566 37.7877 50.8067 34.7101C51.7601 31.6234 53.3675 29.6679 56 29.4171V26.583C53.3676 26.3314 51.7602 24.3766 50.8067 21.29C49.8565 18.2128 49.7246 14.4385 49.8262 11.5246C49.9321 8.4921 47.5682 5.69495 44.3729 5.69495H11.6309H11.6314ZM37.9662 33.1554C37.9662 37.3317 34.851 39.8645 29.6814 39.8645H20.8813C20.6296 39.8645 20.3882 39.7645 20.2102 39.5865C20.0322 39.4085 19.9322 39.1671 19.9322 38.9153V17.0848C19.9322 16.8331 20.0322 16.5917 20.2102 16.4137C20.3882 16.2357 20.6296 16.1357 20.8813 16.1357H29.6313C33.9419 16.1357 36.7709 18.4706 36.7709 22.0555C36.7709 24.5717 34.8678 26.8242 32.4433 27.2189V27.3501C35.7438 27.7121 37.9662 29.9981 37.9662 33.1554V33.1554ZM28.7219 19.1445H23.7042V26.232H27.9303C31.1974 26.232 32.9988 24.9164 32.9988 22.565C32.9985 20.3613 31.4497 19.1445 28.7219 19.1445ZM23.7042 29.0441V36.8547H28.9065C32.3081 36.8547 34.1098 35.4898 34.1098 32.9247C34.1098 30.3597 32.2575 29.0437 28.6878 29.0437H23.7042V29.0441Z" fill="#7952B3"/>
</svg>
