<svg width="56" height="56" viewBox="0 0 56 56" fill="none" xmlns="http://www.w3.org/2000/svg">
<path d="M52.689 0L48.2533 49.691L28.3147 55.2186L8.43099 49.6988L4 0H52.689Z" fill="#264DE4"/>
<path d="M44.4559 46.5269L48.2464 4.06372H28.3445V50.9936L44.4559 46.5269Z" fill="#2965F1"/>
<path d="M14.158 22.4962L14.7043 28.5915H28.3445V22.4962H14.158Z" fill="#EBEBEB"/>
<path d="M28.3445 10.1591H28.3234H13.0602L13.6143 16.2545H28.3445V10.1591Z" fill="#EBEBEB"/>
<path d="M28.3445 44.6681V38.3264L28.3178 38.3335L21.5293 36.5005L21.0954 31.6392H17.7967H14.9766L15.8306 41.2097L28.3164 44.6759L28.3445 44.6681Z" fill="#EBEBEB"/>
<path d="M35.8292 28.5915L35.1217 36.4967L28.3234 38.3316V44.673L40.8192 41.2098L40.9109 40.18L42.3432 24.133L42.492 22.4962L43.5924 10.1591H28.3234V16.2545H36.9124L36.3578 22.4962H28.3234V28.5915H35.8292Z" fill="#EBEBEB"/>
</svg>
