<svg width="56" height="56" viewBox="0 0 56 56" fill="none" xmlns="http://www.w3.org/2000/svg">
<path d="M25.7441 0.587829C27.1103 -0.194176 28.8898 -0.197708 30.2548 0.587829C37.1221 4.46822 43.9916 8.34254 50.8577 12.2253C52.1492 12.9527 53.013 14.39 52.9999 15.878V39.224C53.0095 40.7737 52.0603 42.2453 50.6978 42.9562C43.853 46.8152 37.0118 50.679 30.1682 54.538C28.7738 55.3353 26.9586 55.2739 25.6077 54.4112C23.5556 53.2216 21.5 52.0379 19.4478 50.8495C19.0284 50.5995 18.5557 50.4005 18.2596 49.9939C18.5214 49.6411 18.9894 49.5971 19.3697 49.4431C20.2263 49.1707 21.013 48.7335 21.7999 48.3092C21.9989 48.173 22.2418 48.2252 22.4326 48.3471C24.1873 49.3532 25.9266 50.3885 27.6872 51.385C28.0628 51.6019 28.4431 51.314 28.7642 51.135C35.481 47.3388 42.206 43.5569 48.9217 39.7595C49.1705 39.6398 49.308 39.3757 49.2878 39.1031C49.2925 31.4018 49.289 23.6991 49.2902 15.9978C49.3186 15.6885 49.1397 15.4041 48.86 15.2776C42.039 11.4362 35.2215 7.58899 28.4017 3.74666C28.2836 3.66543 28.1436 3.62184 28.0002 3.62163C27.8568 3.62142 27.7167 3.6646 27.5983 3.74548C20.7785 7.58899 13.9622 11.4398 7.14234 15.2809C6.86369 15.4077 6.67667 15.6873 6.70984 15.9978C6.71102 23.6991 6.70984 31.4018 6.70984 39.1043C6.69801 39.2373 6.72722 39.3707 6.79353 39.4866C6.85985 39.6025 6.96008 39.6953 7.08073 39.7525C8.90063 40.7845 10.7229 41.8092 12.544 42.8377C13.5699 43.3899 14.8295 43.718 15.9599 43.2949C16.9573 42.9372 17.6565 41.9193 17.6375 40.8602C17.6469 33.2038 17.6328 25.5463 17.6446 17.891C17.6196 17.5512 17.9421 17.2704 18.2725 17.3023C19.147 17.2964 20.0226 17.2906 20.897 17.3047C21.262 17.2964 21.5132 17.6624 21.4681 18.0049C21.4645 25.7097 21.4775 33.4148 21.4622 41.1197C21.4645 43.1731 20.6209 45.4074 18.7215 46.4122C16.3816 47.6243 13.4894 47.3673 11.1778 46.2049C9.17654 45.2061 7.26676 44.0273 5.30105 42.9572C3.93504 42.2502 2.99055 40.7727 3.00017 39.2242V15.878C2.98584 14.3592 3.88402 12.8958 5.21569 12.179C12.0593 8.31683 18.9017 4.45174 25.7441 0.587829Z" fill="#8CC84B"/>
<path d="M31.7144 16.7596C34.6991 16.5675 37.8945 16.6458 40.5804 18.1162C42.6599 19.243 43.8128 21.6078 43.8495 23.9181C43.7914 24.2297 43.4656 24.4016 43.1682 24.3802C42.3022 24.3791 41.436 24.392 40.57 24.3744C40.2026 24.3885 39.9891 24.0498 39.943 23.725C39.6942 22.6196 39.0913 21.5248 38.0509 20.9916C36.4537 20.192 34.6018 20.2322 32.8602 20.2489C31.5888 20.3164 30.2216 20.4265 29.1445 21.1741C28.3175 21.7405 28.0663 22.8837 28.3615 23.8045C28.6397 24.4656 29.4029 24.6789 30.0273 24.8755C33.6243 25.8163 37.4361 25.7227 40.9644 26.9608C42.4252 27.4655 43.8542 28.4467 44.3542 29.9761C45.0083 32.026 44.7216 34.4763 43.2631 36.1219C42.0804 37.4761 40.3578 38.2132 38.6398 38.6135C36.3542 39.1232 33.9823 39.1361 31.6612 38.9098C29.4786 38.661 27.2074 38.0876 25.5225 36.6005C24.0817 35.3495 23.378 33.4003 23.4479 31.519C23.4646 31.2013 23.7809 30.9797 24.0853 31.0058C24.9573 30.9987 25.8294 30.9964 26.7015 31.007C27.0498 30.9821 27.3081 31.2831 27.3259 31.6114C27.4868 32.6646 27.8826 33.77 28.801 34.3944C30.5735 35.5379 32.7974 35.4596 34.8269 35.4916C36.5083 35.417 38.3957 35.3945 39.7678 34.2832C40.4917 33.6493 40.7062 32.5889 40.5105 31.6765C40.2986 30.9063 39.4928 30.5474 38.8009 30.3127C35.25 29.1894 31.3957 29.597 27.8791 28.3268C26.4515 27.8222 25.071 26.8683 24.5225 25.4017C23.7572 23.3259 24.1078 20.7583 25.7191 19.1682C27.2902 17.5865 29.5581 16.9774 31.7144 16.7594V16.7596Z" fill="#8CC84B"/>
</svg>
