<svg width="56" height="56" viewBox="0 0 56 56" fill="none" xmlns="http://www.w3.org/2000/svg">
<path d="M54.7401 21.4286C54.5956 21.3138 53.247 20.2956 50.403 20.2956C49.652 20.2988 48.9026 20.3632 48.1621 20.4882C47.6117 16.7153 44.4924 14.8758 44.3526 14.7933L43.5888 14.3529L43.0866 15.0777C42.4575 16.0513 41.9983 17.1246 41.7288 18.252C41.2196 20.4057 41.5292 22.4285 42.6233 24.1579C41.3022 24.8941 39.1829 25.0753 38.7541 25.0913H3.66735C2.75089 25.0926 2.00723 25.8332 2.00224 26.7496C1.96131 29.8234 2.48208 32.8788 3.53891 35.7655C4.74758 38.9352 6.54575 41.27 8.88519 42.6989C11.5067 44.3044 15.7658 45.2218 20.5937 45.2218C22.7748 45.2287 24.9517 45.0313 27.096 44.6324C30.0768 44.0851 32.945 43.0432 35.5821 41.5498C37.755 40.2915 39.7106 38.6907 41.3734 36.809C44.1531 33.6623 45.8092 30.1577 47.0407 27.0431H47.5315C50.575 27.0431 52.4466 25.8252 53.4787 24.8046C54.1646 24.1537 54.7001 23.3608 55.0475 22.4813L55.2654 21.8437L54.7401 21.4286Z" fill="#2496ED"/>
<path d="M6.91958 24.0639H11.6214C11.8481 24.0639 12.0319 23.8801 12.0319 23.6534V19.4653C12.0331 19.2386 11.8504 19.0538 11.6237 19.0525C11.6229 19.0525 11.6221 19.0525 11.6214 19.0525H6.91958C6.69282 19.0525 6.50906 19.2363 6.50906 19.463V19.4653V23.6533C6.50906 23.8801 6.69282 24.0639 6.91958 24.0639V24.0639Z" fill="#2496ED"/>
<path d="M13.3989 24.0639H18.1006C18.3274 24.0639 18.5112 23.8801 18.5112 23.6534V19.4653C18.5124 19.2386 18.3296 19.0538 18.1029 19.0525C18.1021 19.0525 18.1013 19.0525 18.1006 19.0525H13.3988C13.1708 19.0525 12.986 19.2373 12.986 19.4653V23.6533C12.9873 23.8805 13.1717 24.0639 13.3989 24.0639" fill="#2496ED"/>
<path d="M19.9767 24.0639H24.6785C24.9053 24.0639 25.089 23.8801 25.089 23.6534V19.4653C25.0903 19.2386 24.9075 19.0538 24.6807 19.0525C24.68 19.0525 24.6792 19.0525 24.6784 19.0525H19.9766C19.7499 19.0525 19.5661 19.2363 19.5661 19.463V19.4653V23.6533C19.5662 23.8801 19.75 24.0639 19.9767 24.0639V24.0639Z" fill="#2496ED"/>
<path d="M26.4767 24.0639H31.1785C31.4056 24.0639 31.59 23.8805 31.5913 23.6534V19.4653C31.5913 19.2373 31.4065 19.0525 31.1785 19.0525H26.4767C26.2499 19.0525 26.0662 19.2363 26.0662 19.463V19.4653V23.6533C26.0662 23.8801 26.25 24.0639 26.4767 24.0639V24.0639Z" fill="#2496ED"/>
<path d="M13.3989 18.0388H18.1007C18.3277 18.0376 18.5112 17.8531 18.5112 17.626V13.438C18.5112 13.2112 18.3274 13.0275 18.1007 13.0275H13.3989C13.1718 13.0275 12.9874 13.2108 12.9861 13.438V17.626C12.9874 17.8535 13.1714 18.0376 13.3989 18.0388Z" fill="#2496ED"/>
<path d="M19.9767 18.0388H24.6785C24.9055 18.0376 25.089 17.8531 25.089 17.626V13.438C25.089 13.2112 24.9052 13.0275 24.6785 13.0275H19.9767C19.7499 13.0275 19.5662 13.2113 19.5662 13.438V17.626C19.5662 17.8531 19.7496 18.0376 19.9767 18.0388Z" fill="#2496ED"/>
<path d="M26.4767 18.0388H31.1785C31.406 18.0376 31.59 17.8535 31.5913 17.626V13.438C31.59 13.2108 31.4056 13.0275 31.1785 13.0275H26.4767C26.2499 13.0275 26.0662 13.2113 26.0662 13.438V17.626C26.0662 17.8531 26.2496 18.0376 26.4767 18.0388Z" fill="#2496ED"/>
<path d="M26.4767 12.0114H31.1785C31.4056 12.0114 31.59 11.828 31.5913 11.6009V7.41052C31.59 7.18338 31.4056 7 31.1785 7H26.4767C26.2499 7 26.0662 7.18375 26.0662 7.41052V11.6008C26.0662 11.8276 26.25 12.0114 26.4767 12.0114Z" fill="#2496ED"/>
<path d="M33.034 24.0639H37.7357C37.9629 24.0639 38.1473 23.8805 38.1486 23.6534V19.4653C38.1486 19.2373 37.9638 19.0525 37.7357 19.0525H33.034C32.8073 19.0525 32.6234 19.2363 32.6234 19.463V19.4653V23.6533C32.6234 23.8801 32.8073 24.0639 33.034 24.0639" fill="#2496ED"/>
</svg>
