<svg width="56" height="56" viewBox="0 0 56 56" fill="none" xmlns="http://www.w3.org/2000/svg">
<path d="M28 32.5372C30.5059 32.5372 32.5372 30.5059 32.5372 28.0001C32.5372 25.4943 30.5059 23.4629 28 23.4629C25.4942 23.4629 23.4629 25.4943 23.4629 28.0001C23.4629 30.5059 25.4942 32.5372 28 32.5372Z" fill="#61DAFB"/>
<path fill-rule="evenodd" clip-rule="evenodd" d="M6.67586 25.6095C5.64839 26.537 5.30839 27.3476 5.30839 27.9999C5.30839 28.6523 5.64839 29.4628 6.67586 30.3903C7.70314 31.3177 9.28254 32.2287 11.375 33.0276C15.5485 34.6211 21.4259 35.6414 28 35.6414C34.5742 35.6414 40.4516 34.6211 44.6251 33.0276C46.7175 32.2287 48.2969 31.3177 49.3242 30.3903C50.3517 29.4628 50.6917 28.6523 50.6917 27.9999C50.6917 27.3476 50.3517 26.537 49.3242 25.6095C48.2969 24.6822 46.7175 23.7712 44.6251 22.9723C40.4516 21.3787 34.5742 20.3584 28 20.3584C21.4259 20.3584 15.5485 21.3787 11.375 22.9723C9.28254 23.7712 7.70314 24.6822 6.67586 25.6095ZM10.1949 19.8815C14.8328 18.1107 21.1284 17.05 28 17.05C34.8717 17.05 41.1672 18.1107 45.8052 19.8815C48.1185 20.7648 50.1044 21.8568 51.5411 23.1537C52.9775 24.4505 54.0001 26.0853 54.0001 27.9999C54.0001 29.9145 52.9775 31.5494 51.5411 32.8461C50.1044 34.143 48.1185 35.2351 45.8052 36.1183C41.1672 37.8892 34.8717 38.9498 28 38.9498C21.1284 38.9498 14.8328 37.8892 10.1949 36.1183C7.88158 35.2351 5.89561 34.143 4.45897 32.8461C3.0225 31.5494 2 29.9145 2 27.9999C2 26.0853 3.0225 24.4505 4.45897 23.1537C5.89561 21.8568 7.88158 20.7648 10.1949 19.8815Z" fill="#61DAFB"/>
<path fill-rule="evenodd" clip-rule="evenodd" d="M19.4081 8.33745C18.0911 7.91139 17.2191 8.02223 16.6542 8.34839C16.0892 8.67456 15.5573 9.37429 15.2678 10.7279C14.9783 12.0812 14.9791 13.9045 15.3334 16.116C16.0401 20.5272 18.0952 26.1273 21.3823 31.8207C24.6693 37.5141 28.4916 42.0939 31.9584 44.9115C33.6965 46.3241 35.2752 47.2364 36.5919 47.6624C37.9089 48.0885 38.7809 47.9776 39.3458 47.6515C39.9107 47.3253 40.4427 46.6256 40.7322 45.272C41.0217 43.9187 41.0209 42.0954 40.6666 39.8838C39.9599 35.4727 37.9048 29.8726 34.6177 24.1792C31.3306 18.4858 27.5083 13.906 24.0415 11.0884C22.3034 9.67574 20.7248 8.76343 19.4081 8.33745ZM26.1282 8.521C29.9807 11.6521 34.047 16.5739 37.4829 22.525C40.9187 28.476 43.148 34.4584 43.9333 39.3604C44.325 41.8054 44.3723 44.0714 43.9674 45.964C43.5627 47.8564 42.6581 49.5593 41 50.5166C39.3419 51.4739 37.4148 51.4058 35.5736 50.8102C33.7321 50.2144 31.7934 49.0406 29.8718 47.4788C26.0192 44.3477 21.953 39.4259 18.5171 33.4749C15.0813 27.5238 12.852 21.5414 12.0667 16.6394C11.6749 14.1944 11.6277 11.9285 12.0325 10.0359C12.4373 8.14349 13.3419 6.44054 15 5.48324C16.6581 4.52594 18.5852 4.59402 20.4264 5.18967C22.2678 5.7854 24.2066 6.95926 26.1282 8.521Z" fill="#61DAFB"/>
<path fill-rule="evenodd" clip-rule="evenodd" d="M40.7322 10.7279C40.4427 9.37436 39.9107 8.67463 39.3458 8.34847C38.7809 8.0223 37.9089 7.91146 36.5919 8.33752C35.2752 8.7635 33.6966 9.67581 31.9584 11.0885C28.4917 13.9061 24.6694 18.4859 21.3823 24.1793C18.0952 29.8726 16.0401 35.4728 15.3334 39.8839C14.9791 42.0955 14.9783 43.9187 15.2678 45.2721C15.5573 46.6256 16.0892 47.3254 16.6542 47.6515C17.2191 47.9777 18.0911 48.0885 19.4081 47.6625C20.7248 47.2365 22.3034 46.3242 24.0416 44.9115C27.5083 42.0939 31.3306 37.5141 34.6177 31.8207C37.9048 26.1273 39.9599 20.5272 40.6666 16.1161C41.0209 13.9045 41.0217 12.0813 40.7322 10.7279ZM43.9333 16.6395C43.148 21.5415 40.9187 27.5239 37.4829 33.4749C34.047 39.426 29.9808 44.3478 26.1282 47.4789C24.2066 49.0407 22.2679 50.2145 20.4264 50.8102C18.5852 51.4059 16.6581 51.474 15 50.5167C13.3419 49.5594 12.4373 47.8564 12.0325 45.9641C11.6277 44.0714 11.6749 41.8055 12.0667 39.3605C12.852 34.4585 15.0813 28.4761 18.5171 22.5251C21.953 16.574 26.0192 11.6522 29.8718 8.52107C31.7934 6.95933 33.7321 5.78547 35.5736 5.18975C37.4148 4.59409 39.3419 4.52601 41 5.48331C42.6581 6.44062 43.5627 8.14356 43.9674 10.0359C44.3723 11.9286 44.3251 14.1945 43.9333 16.6395Z" fill="#61DAFB"/>
</svg>
