<svg width="56" height="56" viewBox="0 0 56 56" fill="none" xmlns="http://www.w3.org/2000/svg">
<path d="M0 0.000244141H56V56.0003H0V0.000244141Z" fill="#017ACB"/>
<path d="M26.8888 20.7379H29.5751V25.3754H22.3126V46.0079L22.1201 46.0604C21.8576 46.1304 18.4013 46.1304 17.6576 46.0516L17.0626 45.9991V25.3754H9.80005V20.7379L12.1013 20.7116C13.3613 20.6941 16.5988 20.6941 19.2938 20.7116C21.9888 20.7291 25.4013 20.7379 26.8888 20.7379V20.7379ZM47.3901 43.8204C46.3226 44.9491 45.1764 45.5791 43.2689 46.0954C42.4376 46.3229 42.2976 46.3316 40.4251 46.3229C38.5526 46.3141 38.4039 46.3141 37.4939 46.0779C35.1401 45.4741 33.2414 44.2929 31.9463 42.6216C31.5788 42.1491 30.9751 41.1691 30.9751 41.0466C30.9751 41.0116 31.0626 40.9329 31.1763 40.8804C31.2901 40.8279 31.5263 40.6791 31.7188 40.5654C31.9113 40.4516 32.2613 40.2416 32.4976 40.1191C32.7338 39.9966 33.4164 39.5941 34.0114 39.2354C34.6064 38.8766 35.1489 38.5879 35.2101 38.5879C35.2714 38.5879 35.3851 38.7104 35.4726 38.8591C35.9976 39.7429 37.2226 40.8716 38.0889 41.2566C38.6226 41.4841 39.8039 41.7379 40.3726 41.7379C40.8976 41.7379 41.8601 41.5104 42.3764 41.2741C42.9276 41.0204 43.2076 40.7666 43.5401 40.2591C43.7676 39.9004 43.7939 39.8041 43.7851 39.1216C43.7851 38.4916 43.7501 38.3166 43.5751 38.0279C43.0851 37.2229 42.4201 36.8029 39.7251 35.6129C36.9426 34.3791 35.6914 33.6441 34.6764 32.6554C33.9239 31.9204 33.7751 31.7191 33.3026 30.8004C32.6901 29.6191 32.6113 29.2341 32.6026 27.4754C32.5938 26.2416 32.6201 25.8391 32.7513 25.4191C32.9351 24.7891 33.5301 23.5729 33.8014 23.2666C34.3614 22.6104 34.5626 22.4091 34.9564 22.0854C36.1464 21.1054 38.0014 20.4579 39.7776 20.3966C39.9789 20.3966 40.6439 20.4316 41.2651 20.4754C43.0501 20.6241 44.2664 21.0616 45.4389 21.9979C46.3226 22.6979 47.6614 24.3429 47.5301 24.5616C47.4426 24.6929 43.9514 27.0204 43.7239 27.0904C43.5839 27.1341 43.4876 27.0816 43.2951 26.8541C42.1051 25.4279 41.6239 25.1216 40.4689 25.0516C39.6464 24.9991 39.2089 25.0954 38.6576 25.4629C38.0801 25.8479 37.8001 26.4341 37.8001 27.2479C37.8089 28.4379 38.2639 28.9979 39.9439 29.8291C41.0289 30.3629 41.9564 30.8004 42.0264 30.8004C42.1314 30.8004 44.3801 31.9204 44.9664 32.2704C47.6964 33.8716 48.8076 35.5166 49.0964 38.3516C49.3064 40.4866 48.7026 42.4379 47.3901 43.8204V43.8204Z" fill="#1E2235"/>
</svg>
