<svg width="56" height="56" viewBox="0 0 56 56" fill="none" xmlns="http://www.w3.org/2000/svg">
<path d="M13.7096 18.4346H23.8689V19.2382H14.6409V25.2862H23.3186V26.0898H14.6409V32.73H23.9747V33.5336H13.7096V18.4346ZM24.779 18.4346H25.8584L30.6417 25.0748L35.5308 18.4346L42.1808 10L31.2555 25.7726L36.8854 33.5336H35.7636L30.6417 26.4705L25.4986 33.5336H24.398L30.0702 25.7726L24.779 18.4346ZM37.2875 19.2382V18.4346H48.8648V19.2382H43.5312V33.5336H42.5999V19.2382H37.2875Z" fill="white"/>
<path d="M1 18.4347H2.16408L18.216 42.3395L11.5825 33.5337L1.97359 19.5766L1.93126 33.5337H1V18.4347Z" fill="white"/>
<path d="M48.771 32.4878C48.9635 32.4878 49.1039 32.3411 49.1039 32.1515C49.1039 31.9619 48.9635 31.8152 48.771 31.8152C48.5807 31.8152 48.438 31.9619 48.438 32.1515C48.438 32.3411 48.5807 32.4878 48.771 32.4878ZM49.6861 31.603C49.6861 32.1627 50.0915 32.5284 50.6827 32.5284C51.3124 32.5284 51.6929 32.1515 51.6929 31.4969V29.1924H51.1855V31.4946C51.1855 31.858 51.002 32.0521 50.6781 32.0521C50.3882 32.0521 50.1912 31.8716 50.1844 31.603H49.6861ZM52.3565 31.5736C52.3928 32.156 52.8798 32.5284 53.6046 32.5284C54.3792 32.5284 54.864 32.1379 54.864 31.515C54.864 31.0252 54.5876 30.7543 53.9172 30.5986L53.557 30.5105C53.1312 30.4112 52.959 30.2781 52.959 30.0456C52.959 29.7522 53.2263 29.5603 53.6272 29.5603C54.0078 29.5603 54.2705 29.7476 54.3181 30.0478H54.8119C54.7824 29.4994 54.2977 29.1134 53.634 29.1134C52.9205 29.1134 52.4449 29.4994 52.4449 30.0794C52.4449 30.5579 52.7144 30.8423 53.3056 30.98L53.7269 31.0816C54.1595 31.1832 54.3498 31.3321 54.3498 31.5804C54.3498 31.8693 54.0508 32.0792 53.6431 32.0792C53.2059 32.0792 52.9024 31.8829 52.8594 31.5736H52.3565Z" fill="white"/>
</svg>
